<?xml version="1.0" standalone="no"?>
<!DOCTYPE svg PUBLIC "-//W3C//DTD SVG 20010904//EN"
 "http://www.w3.org/TR/2001/REC-SVG-20010904/DTD/svg10.dtd">
<svg version="1.0" xmlns="http://www.w3.org/2000/svg"
 width="400.000000pt" height="400.000000pt" viewBox="0 0 400.000000 400.000000"
 preserveAspectRatio="xMidYMid meet">

<g transform="translate(0.000000,400.000000) scale(0.100000,-0.100000)"
fill="#000000" stroke="none">
<path d="M1 3578 l0 -423 50 100 c28 55 57 107 65 116 8 8 14 19 14 24 0 15
93 168 132 218 21 27 38 52 38 57 0 4 17 26 38 48 49 53 57 63 92 115 33 49
94 115 128 137 12 8 22 18 22 22 0 4 -130 8 -290 8 l-290 0 1 -422z"/>
<path d="M3070 3975 c6 -15 6 -26 0 -30 -15 -9 -12 -32 10 -77 11 -23 20 -57
20 -75 0 -18 4 -33 9 -33 13 0 20 -64 8 -72 -8 -5 -7 -14 2 -32 8 -13 11 -34
8 -45 -3 -11 1 -22 8 -25 15 -5 9 -46 -8 -58 -7 -4 -5 -20 6 -45 10 -21 21
-62 26 -91 4 -28 15 -60 23 -70 9 -9 19 -28 23 -42 10 -33 55 -110 64 -110 4
0 8 -6 8 -13 0 -7 11 -38 25 -68 14 -29 29 -74 32 -99 4 -25 11 -54 15 -65 12
-28 28 -165 20 -165 -4 0 -17 12 -29 28 -26 33 -23 25 15 -53 32 -65 30 -41
35 -380 2 -119 9 -167 23 -162 26 8 68 106 70 163 l2 56 58 -63 c70 -77 117
-146 111 -162 -6 -16 46 -38 74 -31 12 4 22 13 22 20 0 13 -217 254 -229 254
-3 0 -19 16 -35 36 -21 26 -25 39 -17 47 8 8 15 5 27 -11 8 -12 25 -27 37 -34
20 -10 21 -10 8 5 -12 15 -11 17 3 17 15 0 16 2 3 15 -8 7 -26 17 -41 21 -14
3 -24 10 -21 14 3 4 -5 21 -17 36 l-22 29 30 -27 c35 -32 60 -37 49 -10 -4 9
-8 26 -9 37 -2 11 -8 31 -16 44 -15 29 -6 191 16 273 7 29 14 76 14 104 0 49
17 104 33 104 4 0 7 -8 8 -17 1 -10 5 0 10 22 13 61 32 119 42 133 16 21 27
13 27 -20 0 -21 3 -28 8 -20 10 16 36 -98 58 -258 16 -118 21 -300 9 -320 -4
-6 -1 -17 5 -25 10 -12 10 -18 1 -29 -24 -29 -29 -151 -8 -197 18 -41 31 -143
16 -134 -5 3 -6 -1 -3 -10 4 -9 12 -14 18 -12 14 6 51 -23 52 -40 2 -30 5 -34
17 -27 6 4 9 3 4 -1 -4 -5 1 -18 10 -29 18 -20 18 -20 -9 -3 -45 28 -78 20
-40 -9 15 -12 10 -14 -38 -12 -54 2 -261 -20 -269 -28 -10 -9 10 -14 96 -23
130 -14 151 -31 138 -117 -6 -40 -9 -44 -41 -50 -19 -3 -34 -8 -34 -9 0 -2 4
-15 9 -28 9 -23 5 -28 -45 -59 -53 -32 -102 -66 -76 -53 9 5 32 -29 32 -49 0
-2 -19 -16 -42 -32 -48 -31 -138 -43 -138 -18 0 8 -4 14 -9 14 -19 0 -41 -32
-51 -73 -6 -23 -15 -58 -21 -77 -5 -19 -9 -52 -9 -72 0 -43 16 -48 60 -23 14
8 33 14 44 15 26 0 103 48 147 91 37 38 85 127 104 197 4 12 11 22 16 22 11 0
12 -13 1 -26 -5 -5 -17 -31 -27 -59 -50 -135 -110 -210 -194 -240 -25 -9 -62
-23 -81 -30 -52 -21 -184 -52 -273 -64 -101 -14 -337 -14 -337 -1 0 6 26 10
58 11 92 2 106 9 110 53 3 31 0 38 -17 43 -12 3 -21 12 -21 19 0 8 -7 14 -16
14 -8 0 -12 5 -9 10 3 6 0 10 -8 10 -24 0 -41 29 -43 73 -2 23 -3 46 -3 50 -1
5 -8 2 -16 -7 -8 -8 -15 -32 -15 -56 0 -23 -4 -39 -9 -36 -11 7 -21 -18 -21
-54 0 -16 -5 -41 -11 -57 -6 -15 -14 -46 -18 -68 -5 -25 -6 4 -5 75 3 111 -13
270 -29 286 -4 4 -7 17 -7 30 0 12 -3 30 -6 39 -5 13 -8 14 -15 3 -6 -9 -9 -5
-9 13 0 27 -25 85 -41 94 -5 4 -9 13 -9 21 0 24 -25 45 -38 32 -8 -8 -10 -6
-8 5 1 9 5 19 9 23 6 7 -15 45 -44 79 -9 11 -19 27 -21 36 -4 20 -136 169
-149 169 -18 0 -9 -22 11 -27 11 -3 20 -11 20 -18 0 -7 11 -20 25 -29 14 -9
25 -23 25 -30 0 -8 13 -27 28 -43 28 -28 62 -86 62 -107 0 -6 -7 0 -16 12 -9
13 -20 19 -27 15 -7 -4 -46 -10 -87 -13 -58 -4 -75 -8 -75 -20 0 -8 7 -15 15
-16 32 -2 37 -5 74 -39 37 -33 42 -35 87 -29 41 5 49 4 49 -9 0 -9 5 -28 12
-44 11 -26 32 -103 45 -165 5 -28 23 -39 23 -15 0 7 5 5 10 -5 38 -64 33 -346
-7 -423 -5 -11 -18 -34 -27 -52 -9 -17 -16 -37 -16 -43 0 -19 -92 -200 -101
-200 -5 0 -9 -9 -9 -20 0 -12 -7 -20 -16 -20 -10 0 -14 -6 -10 -15 3 -8 1 -15
-3 -15 -5 0 -7 -8 -4 -18 4 -19 -63 -104 -98 -123 -28 -14 -25 14 4 43 37 38
73 82 60 75 -23 -14 -6 61 24 110 17 26 34 59 38 73 5 20 2 18 -16 -10 -94
-146 -285 -312 -426 -370 -43 -17 -96 -40 -118 -50 -101 -48 -391 -75 -551
-51 -220 32 -422 115 -544 223 -30 27 -57 48 -61 48 -10 0 -139 164 -181 230
-48 76 -106 210 -129 300 -22 85 -35 277 -25 363 6 45 11 57 25 57 19 0 51
-67 51 -107 0 -12 5 -25 10 -28 10 -6 9 7 -7 70 -9 36 -28 75 -37 75 -26 0 29
191 77 265 17 28 41 67 52 89 11 21 25 41 32 43 7 3 13 10 13 16 0 10 84 94
152 151 55 46 194 125 292 165 44 18 193 51 230 51 49 0 96 -11 90 -21 -3 -5
-14 -9 -25 -9 -43 0 0 -38 51 -44 32 -4 80 -27 80 -38 0 -11 38 -48 50 -48 15
0 0 -29 -19 -35 -10 -3 -56 0 -102 6 -46 6 -98 12 -115 14 -17 1 -41 6 -53 10
-15 5 -21 2 -21 -10 0 -8 -7 -18 -16 -22 -9 -3 -44 -33 -79 -67 -54 -53 -63
-67 -67 -103 -4 -43 5 -57 16 -27 3 8 11 12 16 9 22 -13 79 -15 87 -3 13 22
14 51 1 60 -10 6 -10 8 2 8 8 0 30 16 50 35 20 20 49 38 63 41 25 4 26 3 17
-21 -6 -15 -10 -34 -10 -43 0 -13 2 -13 16 4 15 18 15 17 11 -17 l-5 -36 49 5
c30 3 49 1 49 -6 0 -6 -5 -12 -12 -14 -16 -6 -1 -27 28 -38 13 -5 24 -16 24
-24 0 -16 14 -19 200 -35 150 -13 284 -34 246 -39 -30 -4 -60 -25 -49 -36 3
-3 0 -26 -7 -51 -10 -36 -15 -43 -26 -34 -15 12 -18 7 -14 -25 1 -11 -3 -16
-9 -11 -6 3 -9 10 -6 15 3 4 -2 13 -9 19 -10 8 -16 9 -21 1 -3 -5 -3 -10 2
-11 4 -1 -3 -4 -17 -8 -15 -4 -26 -15 -28 -28 -2 -13 -20 -30 -47 -44 -25 -13
-47 -30 -50 -38 -9 -23 35 -51 65 -43 14 3 53 6 86 7 34 0 60 3 58 7 -2 4 4 9
15 13 28 9 40 50 42 145 2 47 4 90 7 97 3 9 18 5 52 -12 27 -14 52 -29 55 -35
4 -6 25 -10 48 -9 47 2 135 -17 154 -32 8 -8 18 -5 31 8 21 20 37 67 19 56 -7
-4 -8 10 -4 46 5 43 3 55 -13 71 -11 11 -27 20 -35 20 -17 0 -20 25 -5 35 17
10 11 50 -10 68 -20 17 -27 47 -12 47 4 0 13 -5 20 -12 9 -9 12 -9 12 0 0 7
-4 12 -10 12 -5 0 -10 7 -10 15 0 22 -19 18 -40 -7 -10 -13 -21 -20 -25 -17
-3 4 3 16 15 27 16 15 19 26 14 47 -4 17 -9 23 -14 15 -5 -8 -16 -9 -31 -5
l-24 7 25 -23 25 -24 -27 -3 c-24 -3 -126 40 -138 58 -3 4 -14 9 -25 12 -15 2
-19 10 -17 27 3 18 0 22 -12 18 -10 -4 -20 1 -26 13 -6 11 -18 20 -26 20 -8 0
-13 4 -10 9 4 5 -8 12 -26 16 -108 20 -207 48 -202 57 4 5 17 8 30 5 13 -2 21
0 18 5 -6 9 -51 5 -92 -9 -14 -4 -14 -3 -3 5 12 9 13 13 2 26 -10 11 -17 13
-26 6 -8 -6 -29 -7 -60 -1 -55 10 -157 3 -149 -10 3 -5 -21 -9 -53 -9 -109 1
-143 -1 -148 -11 -4 -5 -17 -9 -31 -9 -14 0 -36 -7 -49 -16 -13 -9 -39 -15
-57 -14 -57 3 -75 1 -59 -9 19 -12 -3 -24 -29 -16 -12 4 -20 2 -20 -6 0 -16
-31 -38 -53 -39 -10 0 -16 -4 -13 -8 6 -10 -40 -46 -72 -56 -12 -4 -22 -12
-22 -17 0 -5 -9 -9 -20 -9 -11 0 -20 -5 -20 -11 0 -6 -8 -8 -19 -4 -13 4 -29
-4 -50 -25 -17 -18 -31 -36 -31 -42 0 -6 -6 -8 -14 -5 -8 3 -30 -12 -53 -37
-47 -52 -123 -151 -123 -160 0 -3 -11 -23 -25 -44 -131 -200 -171 -557 -94
-840 22 -80 20 -102 -6 -53 -19 37 -22 38 -50 7 -15 -16 -26 -21 -36 -15 -13
8 -6 13 14 10 4 0 7 4 7 9 0 6 -8 10 -17 10 -22 -1 -55 -25 -46 -33 3 -4 -8
-12 -25 -18 -18 -6 -32 -15 -32 -20 0 -5 -7 -9 -15 -9 -16 0 49 85 119 155 39
38 40 43 27 64 -7 11 -13 11 -32 -3 -13 -9 -30 -16 -37 -16 -12 0 -12 3 -1 17
12 15 12 16 -1 8 -14 -8 2 15 38 53 13 14 17 82 5 82 -15 0 -30 -15 -56 -55
-47 -72 -63 -89 -78 -79 -8 4 -24 7 -36 5 -13 -1 -23 2 -23 8 0 6 5 11 10 11
6 0 10 5 10 10 0 6 -9 10 -20 10 -20 0 -20 -7 -20 -675 l0 -675 2000 0 2000 0
0 2000 0 2000 -470 0 -470 0 10 -25z m560 -685 c0 -5 -4 -10 -10 -10 -5 0 -10
5 -10 10 0 6 5 10 10 10 6 0 10 -4 10 -10z m-83 -122 c-3 -7 -5 -2 -5 12 0 14
2 19 5 13 2 -7 2 -19 0 -25z m-58 -549 c-12 -8 -7 -12 11 -11 3 0 6 -11 7 -26
2 -25 1 -25 -7 -6 -5 12 -13 25 -19 28 -6 4 -8 13 -5 21 4 8 11 12 16 9 6 -4
5 -10 -3 -15z m-2059 -69 c0 -5 -4 -10 -9 -10 -6 0 -13 5 -16 10 -3 6 1 10 9
10 9 0 16 -4 16 -10z m-10 -304 c0 -3 -4 -8 -10 -11 -5 -3 -10 -1 -10 4 0 6 5
11 10 11 6 0 10 -2 10 -4z m210 -10 c0 -2 -7 -7 -16 -10 -8 -3 -12 -2 -9 4 6
10 25 14 25 6z m260 -40 c0 -8 -5 -18 -10 -21 -6 -4 -8 -10 -5 -14 7 -13 -42
-31 -84 -31 -25 0 -41 -5 -45 -15 -10 -28 -24 -15 -30 30 l-7 44 -47 -6 c-26
-3 -51 -9 -56 -13 -4 -5 -22 -4 -39 1 -20 6 -35 5 -44 -2 -10 -9 -13 -7 -13 8
0 16 8 20 42 21 23 1 44 4 46 7 3 3 70 5 149 5 118 0 143 -3 143 -14z m1955
-226 c-28 -12 -37 -12 -30 0 3 6 16 10 28 9 21 0 21 -1 2 -9z m-143 -110 c-6
-16 -11 -20 -16 -11 -4 6 -2 19 5 27 16 20 21 12 11 -16z m213 22 c-10 -10
-145 -12 -145 -2 0 7 27 10 75 9 41 -2 73 -5 70 -7z m-235 -100 c0 -4 -20 -18
-45 -30 -31 -15 -43 -17 -39 -7 3 7 22 20 42 29 45 18 42 18 42 8z m-1079 -25
c-10 -9 -11 -8 -5 6 3 10 9 15 12 12 3 -3 0 -11 -7 -18z m1189 -50 c-36 -17
-77 -40 -92 -50 -15 -11 -33 -17 -40 -14 -14 4 157 95 182 96 8 0 -14 -14 -50
-32z m16 -132 c-23 -17 -36 -19 -36 -6 0 5 8 12 18 14 32 9 37 6 18 -8z m-251
-170 c9 -40 -3 -27 -15 15 -5 19 -6 29 -1 24 5 -5 12 -22 16 -39z m32 -27 c-3
-8 -6 -5 -6 6 -1 11 2 17 5 13 3 -3 4 -12 1 -19z m-211 -40 c-6 -58 -15 -97
-26 -119 -6 -10 -10 -29 -10 -43 0 -31 -36 -116 -50 -116 -5 0 -10 -6 -10 -14
0 -8 -9 -18 -20 -21 -11 -3 -20 -12 -20 -19 0 -20 -38 -49 -55 -43 -8 4 -15
11 -15 18 0 6 7 9 15 5 9 -3 15 0 15 9 0 8 -7 15 -16 15 -9 0 -14 6 -11 13 3
8 -7 21 -24 31 -16 9 -29 24 -29 32 0 8 -5 14 -11 14 -15 0 -104 90 -112 113
-4 10 0 32 9 49 l16 30 -34 -6 c-28 -5 -29 -4 -10 4 13 5 76 19 140 30 90 15
226 46 260 59 1 1 0 -18 -2 -41z m-3204 -90 c-6 -6 -15 -8 -19 -4 -4 4 -1 11
7 16 8 5 17 7 19 4 3 -2 -1 -10 -7 -16z m2528 -174 c0 -47 -28 -132 -57 -170
-13 -17 -23 -36 -23 -42 0 -7 -6 -12 -13 -12 -7 0 -18 -13 -24 -30 -7 -18 -18
-30 -29 -30 -10 0 -25 -7 -35 -16 -27 -24 -30 -1 -5 37 75 114 115 181 141
237 16 34 32 62 37 62 4 0 8 -16 8 -36z m-2568 4 c-7 -7 -12 -8 -12 -2 0 14
12 26 19 19 2 -3 -1 -11 -7 -17z m208 -16 c0 -7 -4 -10 -10 -7 -5 3 -10 16
-10 28 0 18 2 19 10 7 5 -8 10 -21 10 -28z m21 -39 c12 -16 12 -17 -2 -6 -9 7
-19 10 -22 6 -4 -3 -7 -1 -7 5 0 17 16 15 31 -5z m39 -77 c0 -16 -24 12 -26
31 -2 16 -1 16 12 -1 8 -11 14 -24 14 -30z m1802 -256 c-4 -26 -1 -30 18 -30
22 0 23 -1 5 -20 -10 -11 -24 -20 -32 -20 -7 0 -16 -6 -18 -13 -3 -6 -34 -27
-68 -46 -53 -28 -69 -33 -101 -27 -53 10 -58 33 -14 68 44 36 200 128 208 123
4 -2 5 -18 2 -35z m438 -20 c0 -5 -10 -10 -22 -11 -22 0 -22 -1 -3 -9 18 -7
19 -8 3 -15 -10 -4 -25 -4 -33 -1 -25 9 0 46 30 46 14 0 25 -4 25 -10z m-2145
-260 c-4 -12 -9 -19 -12 -17 -3 3 -2 15 2 27 4 12 9 19 12 17 3 -3 2 -15 -2
-27z"/>
<path d="M1042 3893 c-6 -2 -10 -8 -7 -13 3 -4 -2 -10 -10 -14 -8 -3 -15 -1
-15 4 0 16 -33 11 -57 -9 -13 -11 -23 -22 -23 -25 0 -9 -36 -43 -60 -56 -16
-8 -19 -17 -14 -33 4 -12 11 -25 16 -28 5 -3 -1 -9 -13 -12 -21 -6 -22 -8 -8
-24 8 -10 26 -41 39 -70 19 -40 30 -52 48 -53 15 0 22 6 22 18 0 10 12 22 30
29 21 8 28 16 24 27 -4 11 -1 16 10 16 9 0 16 6 16 14 0 8 9 21 20 29 16 11
40 55 40 74 0 3 -13 3 -30 0 -39 -8 -39 7 -1 24 17 8 35 24 42 36 7 13 19 23
27 23 7 0 12 5 10 11 -2 6 -7 10 -12 9 -5 -1 -13 5 -18 14 -9 15 -49 20 -76 9z"/>
<path d="M940 3525 c-7 -8 -18 -15 -24 -15 -6 0 -17 -9 -24 -20 -7 -12 -17
-18 -22 -15 -6 3 -10 2 -10 -4 0 -5 10 -12 23 -14 17 -3 16 -5 -8 -6 -26 -1
-28 -3 -14 -14 8 -7 21 -21 27 -32 11 -19 11 -18 12 7 0 15 6 31 13 35 15 10
52 81 45 88 -3 3 -11 -1 -18 -10z"/>
<path d="M790 3451 c0 -5 -11 -12 -24 -15 -27 -7 -66 -79 -66 -122 0 -18 -4
-24 -13 -21 -26 10 -49 -64 -61 -193 -4 -47 -18 -75 -36 -75 -8 0 -20 -16 -26
-35 -15 -48 -24 -111 -15 -106 4 3 6 -16 5 -42 -3 -41 -2 -44 8 -24 8 15 17
21 27 16 35 -14 51 -16 51 -5 0 7 4 10 9 7 5 -3 0 -23 -10 -43 -29 -60 -34
-93 -15 -93 9 0 16 8 16 18 0 11 6 32 14 48 25 50 24 104 -1 104 -15 0 -15 1
0 18 9 10 17 32 19 50 1 22 7 31 15 28 7 -3 13 -1 13 4 0 6 -9 10 -20 10 -15
0 -20 7 -20 25 0 16 6 25 15 25 8 0 15 5 15 12 0 6 8 20 17 30 11 13 13 22 6
29 -14 14 -4 59 13 59 9 0 14 11 14 30 0 17 4 30 9 30 5 0 11 8 15 18 3 9 9
23 12 30 3 7 -2 12 -13 12 -13 0 -14 3 -5 8 7 5 10 16 6 26 -6 15 -3 17 12 12
25 -7 48 8 41 27 -4 11 2 13 24 11 32 -4 40 15 15 35 -11 9 -15 9 -20 -1 -3
-7 -4 -1 -1 15 6 29 -3 35 -23 15 -6 -6 -15 -8 -19 -3 -5 4 -2 10 5 12 14 6
16 23 2 23 -5 0 -10 -4 -10 -9z m-55 -181 c-2 -31 -15 -37 -15 -7 0 15 4 27 8
27 5 0 8 -9 7 -20z m-158 -292 c-3 -8 -6 -5 -6 6 -1 11 2 17 5 13 3 -3 4 -12
1 -19z m37 -103 c-4 -8 -10 -12 -15 -9 -11 6 -2 24 11 24 5 0 7 -7 4 -15z"/>
<path d="M3131 3105 c0 -5 6 -19 14 -29 8 -11 15 -15 15 -10 0 6 -7 19 -15 30
-8 10 -14 15 -14 9z"/>
<path d="M3190 3012 c0 -5 25 -47 55 -93 30 -46 55 -87 55 -93 0 -5 3 -7 6 -4
3 4 -1 19 -10 35 -23 46 -106 167 -106 155z"/>
<path d="M590 2801 c0 -6 5 -13 10 -16 6 -3 10 1 10 9 0 9 -4 16 -10 16 -5 0
-10 -4 -10 -9z"/>
<path d="M580 2650 c0 -5 5 -10 10 -10 6 0 10 5 10 10 0 6 -4 10 -10 10 -5 0
-10 -4 -10 -10z"/>
<path d="M576 2573 c9 -52 22 -83 33 -83 6 0 6 12 -1 33 -5 17 -12 42 -15 55
-9 40 -25 36 -17 -5z"/>
<path d="M1700 2566 c0 -2 7 -7 16 -10 8 -3 12 -2 9 4 -6 10 -25 14 -25 6z"/>
<path d="M2049 2430 c12 -11 27 -17 33 -14 11 7 -21 33 -42 33 -10 0 -8 -6 9
-19z"/>
<path d="M2115 2400 c3 -5 10 -10 16 -10 5 0 9 5 9 10 0 6 -7 10 -16 10 -8 0
-12 -4 -9 -10z"/>
<path d="M2070 2390 c-13 -8 -12 -10 3 -10 9 0 17 5 17 10 0 12 -1 12 -20 0z"/>
<path d="M1036 2365 c-3 -8 -14 -15 -25 -15 -14 0 -19 -5 -15 -15 4 -8 2 -15
-4 -15 -5 0 -12 -11 -14 -25 -10 -48 35 -19 54 35 6 20 15 29 24 26 7 -3 16
-1 19 3 3 5 -2 12 -11 15 -21 8 -21 8 -28 -9z"/>
<path d="M2230 2325 c0 -8 7 -15 16 -15 14 0 14 3 4 15 -7 8 -14 15 -16 15 -2
0 -4 -7 -4 -15z"/>
<path d="M2804 2175 c-4 -10 -11 -12 -21 -7 -8 5 -37 3 -66 -5 -28 -7 -59 -13
-69 -13 -25 0 -23 -19 11 -108 55 -146 89 -247 96 -282 16 -95 27 -120 51
-120 12 0 26 -4 29 -10 3 -5 15 -10 26 -10 10 0 19 -4 19 -10 0 -5 5 -10 11
-10 8 0 8 4 2 13 -6 6 -13 31 -17 55 -6 38 -4 42 14 42 14 0 20 7 20 21 0 17
4 20 28 15 15 -3 50 -2 77 2 l50 9 -42 12 c-24 6 -43 18 -43 26 0 7 -13 16
-30 20 -33 7 -29 15 24 49 20 12 39 16 62 13 19 -3 36 -1 40 5 3 5 14 8 24 5
19 -5 50 9 50 23 0 6 -13 10 -29 10 -17 0 -33 5 -36 10 -4 6 -10 8 -15 5 -5
-3 -11 -1 -15 5 -3 5 1 10 9 10 11 0 13 6 6 29 -8 29 -8 29 54 41 88 17 130
31 141 47 6 7 34 16 63 20 34 4 49 9 40 14 -7 5 -26 7 -43 4 -43 -6 -210 -23
-277 -29 -40 -3 -57 -1 -55 7 1 6 -16 21 -38 31 -39 19 -39 20 -15 26 23 6 23
7 5 12 -52 16 -76 18 -70 8 4 -6 -3 -10 -17 -9 -13 0 -17 3 -10 6 10 4 9 8 -5
19 -23 17 -32 17 -39 -1z"/>
<path d="M3405 2160 c3 -5 8 -10 11 -10 2 0 4 5 4 10 0 6 -5 10 -11 10 -5 0
-7 -4 -4 -10z"/>
<path d="M1320 2146 c0 -12 -24 -14 -137 -11 -122 3 -128 3 -53 -5 47 -4 119
-10 160 -11 75 -4 77 -3 72 31 -3 16 -42 12 -42 -4z"/>
<path d="M1014 2110 c-17 -4 -42 -14 -55 -24 l-24 -17 30 1 c17 0 66 -4 110
-9 44 -5 126 -12 183 -15 l102 -7 0 30 0 29 -124 7 c-68 4 -129 5 -134 1 -6
-3 -21 -2 -34 2 -12 5 -37 6 -54 2z"/>
<path d="M1488 2083 c6 -2 18 -2 25 0 6 3 1 5 -13 5 -14 0 -19 -2 -12 -5z"/>
<path d="M728 2073 c7 -3 16 -2 19 1 4 3 -2 6 -13 5 -11 0 -14 -3 -6 -6z"/>
<path d="M823 2073 c9 -2 25 -2 35 0 9 3 1 5 -18 5 -19 0 -27 -2 -17 -5z"/>
<path d="M1618 2073 c6 -2 18 -2 25 0 6 3 1 5 -13 5 -14 0 -19 -2 -12 -5z"/>
<path d="M2432 2048 c-1 -24 2 -27 14 -17 18 15 18 35 0 42 -9 4 -13 -4 -14
-25z"/>
<path d="M1725 2063 c11 -3 24 -11 28 -19 4 -8 16 -14 25 -13 14 0 14 2 -3 10
-19 8 -19 9 -1 6 26 -3 32 -24 9 -30 -14 -4 -12 -5 6 -6 16 -1 21 -5 18 -16
-4 -8 -2 -17 3 -20 5 -3 13 14 17 37 l9 43 -36 7 c-41 8 -107 9 -75 1z"/>
<path d="M3557 1924 c-3 -3 -32 -7 -64 -9 -32 -1 -69 -7 -83 -13 l-25 -11 23
0 c19 -1 22 -5 16 -23 -8 -29 -6 -27 -35 -30 -31 -4 -48 -33 -49 -83 l0 -39
53 55 c28 31 61 68 73 82 12 14 40 30 62 36 23 7 44 16 47 21 6 10 -9 22 -18
14z"/>
<path d="M3598 1863 c7 -3 16 -2 19 1 4 3 -2 6 -13 5 -11 0 -14 -3 -6 -6z"/>
<path d="M2997 1845 c-9 -7 -17 -15 -17 -19 0 -9 81 4 100 16 12 8 12 8 -3 4
-9 -3 -27 -2 -40 3 -15 6 -29 5 -40 -4z"/>
<path d="M3515 1829 c-23 -10 -54 -32 -71 -47 -16 -15 -47 -38 -67 -52 -33
-22 -47 -40 -32 -40 9 0 180 109 210 134 36 31 17 33 -40 5z"/>
<path d="M2247 1673 c-4 -3 -7 -13 -7 -22 1 -13 3 -13 11 2 11 19 8 33 -4 20z"/>
<path d="M2106 1296 c-56 -96 -160 -163 -289 -185 -37 -6 -85 -9 -105 -7 -27
4 -30 3 -12 -2 65 -21 -362 -30 -538 -12 -121 13 -212 28 -276 46 -64 18 -72
11 -9 -9 151 -49 362 -71 601 -64 256 8 427 36 522 87 66 35 146 138 138 178
-2 11 -13 0 -32 -32z"/>
<path d="M1553 1093 c9 -2 25 -2 35 0 9 3 1 5 -18 5 -19 0 -27 -2 -17 -5z"/>
<path d="M1850 911 c0 -6 5 -13 10 -16 6 -3 10 1 10 9 0 9 -4 16 -10 16 -5 0
-10 -4 -10 -9z"/>
<path d="M1995 830 c-3 -5 -16 -10 -28 -11 -20 -1 -20 -2 3 -9 14 -4 20 -8 14
-9 -6 -1 -10 -13 -8 -28 1 -15 -2 -33 -8 -40 -7 -9 -7 -13 2 -13 7 0 10 -8 7
-20 -6 -23 10 -30 39 -17 15 6 24 22 28 49 6 36 -5 76 -18 71 -17 -8 -24 -1
-21 17 4 22 0 26 -10 10z"/>
<path d="M1870 820 c0 -5 5 -10 10 -10 6 0 10 5 10 10 0 6 -4 10 -10 10 -5 0
-10 -4 -10 -10z"/>
<path d="M1696 704 c-3 -9 -1 -23 5 -30 9 -11 8 -14 -5 -14 -9 0 -16 -6 -15
-12 1 -7 -1 -21 -5 -30 -10 -22 -1 -48 16 -47 10 0 10 2 1 6 -28 11 -11 21 26
16 21 -3 56 0 77 7 34 12 36 14 19 22 -14 5 -8 6 18 3 23 -4 37 -2 37 5 0 6
-7 10 -16 8 -31 -6 -25 19 6 25 36 8 39 24 5 33 -14 3 -25 10 -25 16 0 5 -6 6
-12 1 -7 -4 -23 -6 -34 -5 -15 2 -23 -4 -27 -17 -7 -27 -20 -27 -32 1 -13 28
-31 34 -39 12z m144 -23 c0 -11 -49 -21 -55 -10 -5 6 4 10 48 18 4 0 7 -3 7
-8z m-100 -71 c20 -6 21 -8 5 -8 -11 0 -31 4 -45 8 -20 6 -21 8 -5 8 11 0 31
-4 45 -8z"/>
</g>
</svg>
